<?xml version="1.0" standalone="no"?>
<!DOCTYPE svg PUBLIC "-//W3C//DTD SVG 20010904//EN"
 "http://www.w3.org/TR/2001/REC-SVG-20010904/DTD/svg10.dtd">
<svg version="1.0" xmlns="http://www.w3.org/2000/svg"
 width="500.000000pt" height="500.000000pt" viewBox="0 0 500.000000 500.000000"
 preserveAspectRatio="xMidYMid meet">
<metadata>
Created by potrace 1.16, written by Peter Selinger 2001-2019
</metadata>
<g transform="translate(0.000000,500.000000) scale(0.100000,-0.100000)"
fill="#000000" stroke="none">
<path d="M2361 3470 c-9 -27 -8 -31 17 -44 33 -18 72 -54 106 -99 34 -44 76
-158 76 -206 0 -21 3 -53 6 -70 6 -26 11 -31 35 -31 28 0 29 2 29 48 0 122
-49 261 -119 335 -34 37 -116 97 -132 97 -4 0 -12 -14 -18 -30z"/>
<path d="M2997 3116 c-36 -13 -93 -52 -130 -89 -27 -27 -146 -102 -224 -142
-112 -57 -187 -78 -303 -84 -87 -5 -101 -8 -85 -18 11 -6 55 -16 97 -22 160
-22 362 29 555 141 57 33 105 64 109 69 19 31 122 -18 193 -92 64 -65 115
-166 147 -288 26 -101 26 -109 22 -335 -6 -293 -31 -424 -109 -581 -89 -179
-262 -303 -489 -350 -41 -8 -91 -15 -110 -15 -49 1 -146 25 -178 45 -26 16
-26 16 3 -11 155 -148 545 -108 759 76 79 68 132 135 182 230 136 255 176 768
82 1046 -92 271 -353 482 -521 420z"/>
<path d="M1775 3111 c-155 -40 -294 -214 -331 -416 -52 -282 68 -783 245
-1021 9 -12 23 -32 31 -44 107 -158 322 -320 425 -320 135 0 287 163 345 370
20 70 35 158 27 150 -3 -3 -28 -50 -56 -104 -90 -175 -193 -277 -285 -283 -47
-4 -54 -1 -96 34 -210 179 -336 400 -419 733 -48 197 -64 389 -40 502 26 122
126 261 196 274 60 11 294 -2 348 -21 29 -9 96 -18 160 -21 116 -5 117 -1 5
34 -36 11 -108 38 -160 59 -133 55 -327 91 -395 74z"/>
</g>
</svg>
