<svg width="418.68" height="85.441" viewBox="0 0 418.68 85.441" xmlns="http://www.w3.org/2000/svg"><g id="svgGroup" stroke-linecap="round" fill-rule="evenodd" font-size="9pt" stroke="black" stroke-width="0.25mm" fill="black" style="stroke:black;stroke-width:0.25mm;fill:black"><path d="M 48.12 84 L 10.8 14.64 L 10.8 84 L 0 84 L 0 0 L 15.12 0 L 52.2 69.84 L 52.2 0 L 63 0 L 63 84 L 48.12 84 Z M 208.68 71.76 L 224.64 21 L 234.24 24.48 L 214.44 84 L 202.56 84 L 188.16 37.56 L 173.64 84 L 161.76 84 L 142.08 24.48 L 152.04 21 L 168.12 71.76 L 182.76 26.04 L 194.4 26.04 L 208.68 71.76 Z M 376.68 21.6 L 376.68 32.04 Q 380.04 27 385.26 23.58 A 20.779 20.779 0 0 1 393.787 20.431 A 27.155 27.155 0 0 1 397.68 20.16 A 27.87 27.87 0 0 1 403.759 20.781 Q 409.871 22.148 413.46 26.52 Q 418.41 32.551 418.666 42.25 A 40.517 40.517 0 0 1 418.68 43.32 L 418.68 84 L 407.88 84 L 407.88 44.52 A 24.335 24.335 0 0 0 407.511 40.151 Q 407.06 37.683 406.058 35.713 A 12.826 12.826 0 0 0 404.76 33.66 A 10.153 10.153 0 0 0 397.626 29.739 A 14.866 14.866 0 0 0 395.88 29.64 Q 393.12 29.64 390.48 30.66 A 21.81 21.81 0 0 0 386.037 33.016 A 24.751 24.751 0 0 0 385.38 33.48 Q 382.92 35.28 380.82 37.68 Q 378.72 40.08 377.04 42.72 L 377.04 84 L 366.24 84 L 366.24 21.6 L 376.68 21.6 Z M 133.92 57.24 L 90.24 57.24 Q 91.32 66 96.36 70.92 A 16.973 16.973 0 0 0 105.51 75.493 A 24.025 24.025 0 0 0 109.68 75.84 Q 115.08 75.84 119.4 74.7 Q 123.72 73.56 127.68 71.76 L 130.2 81 A 42.487 42.487 0 0 1 124.417 83.21 A 53.12 53.12 0 0 1 120.48 84.24 A 48.854 48.854 0 0 1 114.37 85.176 A 65.528 65.528 0 0 1 108.36 85.44 A 35.014 35.014 0 0 1 101.405 84.776 A 28.33 28.33 0 0 1 96.24 83.22 Q 90.84 81 87.06 76.86 A 26.553 26.553 0 0 1 82.685 70.26 A 33.089 33.089 0 0 1 81.24 66.66 A 37.897 37.897 0 0 1 79.619 59.511 A 51.375 51.375 0 0 1 79.2 52.8 A 41.853 41.853 0 0 1 80.164 43.684 A 36.716 36.716 0 0 1 81.24 39.84 A 33.239 33.239 0 0 1 84.616 32.701 A 28.983 28.983 0 0 1 87 29.46 Q 90.72 25.08 95.88 22.62 A 25.447 25.447 0 0 1 104.627 20.282 A 30.959 30.959 0 0 1 107.4 20.16 Q 114.12 20.16 119.16 22.44 Q 124.2 24.72 127.56 28.68 A 26.333 26.333 0 0 1 132.355 37.184 A 30.257 30.257 0 0 1 132.6 37.92 Q 134.28 43.2 134.28 49.08 A 90.244 90.244 0 0 1 133.931 57.116 A 83.149 83.149 0 0 1 133.92 57.24 Z M 249.48 23.88 L 251.76 4.2 L 260.04 4.2 L 260.04 23.88 L 277.32 23.88 L 277.32 33.24 L 260.04 33.24 L 260.04 63.36 A 26.01 26.01 0 0 0 260.15 65.818 Q 260.264 67.019 260.497 68.056 A 13.234 13.234 0 0 0 260.82 69.24 A 13.155 13.155 0 0 0 261.543 71.032 Q 262.136 72.225 262.92 73.08 Q 264.24 74.52 266.1 75.18 Q 267.96 75.84 270 75.84 A 16.672 16.672 0 0 0 274.637 75.206 A 15.441 15.441 0 0 0 275.64 74.88 Q 278.28 73.92 280.68 72.6 L 283.68 81.24 Q 282.049 82.219 279.641 83.17 A 52.038 52.038 0 0 1 277.2 84.06 Q 273.12 85.44 268.68 85.44 A 22.202 22.202 0 0 1 262.462 84.613 A 16.741 16.741 0 0 1 254.46 79.56 A 18.945 18.945 0 0 1 250.649 72.691 Q 249.24 68.318 249.24 62.52 L 249.24 33.24 L 238.44 33.24 L 238.44 23.88 L 249.48 23.88 Z M 290.357 45.191 A 41.036 41.036 0 0 0 289.68 52.8 A 41.643 41.643 0 0 0 289.836 56.433 A 34.466 34.466 0 0 0 292.02 66 A 35.341 35.341 0 0 0 292.633 67.474 A 30.525 30.525 0 0 0 298.5 76.32 Q 302.64 80.64 308.34 83.04 Q 314.04 85.44 320.76 85.44 A 36.539 36.539 0 0 0 321.99 85.419 A 31.719 31.719 0 0 0 333.06 83.1 Q 338.76 80.76 342.96 76.44 A 28.59 28.59 0 0 0 345.175 73.872 A 31.394 31.394 0 0 0 349.5 66.06 Q 351.84 60 351.84 52.56 A 41.908 41.908 0 0 0 351.556 47.615 A 33.373 33.373 0 0 0 349.44 39.12 A 34.462 34.462 0 0 0 348.646 37.289 A 29.305 29.305 0 0 0 342.84 28.92 Q 338.64 24.72 332.94 22.44 A 31.271 31.271 0 0 0 332.224 22.164 A 32.628 32.628 0 0 0 320.76 20.16 Q 314.16 20.16 308.46 22.44 Q 302.76 24.72 298.62 28.92 A 27.916 27.916 0 0 0 295.76 32.332 A 32.165 32.165 0 0 0 292.08 39.18 A 32.773 32.773 0 0 0 290.357 45.191 Z M 340.8 52.8 Q 340.8 48.12 339.3 43.92 A 23.476 23.476 0 0 0 336.45 38.334 A 21.258 21.258 0 0 0 335.1 36.6 Q 332.4 33.48 328.74 31.62 Q 325.08 29.76 320.76 29.76 A 23.099 23.099 0 0 0 314.489 30.566 A 16.844 16.844 0 0 0 306 36 A 21.454 21.454 0 0 0 301.591 44.848 Q 300.802 48.038 300.728 51.78 A 39.444 39.444 0 0 0 300.72 52.56 Q 300.72 57.24 302.22 61.5 A 24.158 24.158 0 0 0 304.996 67.066 A 21.781 21.781 0 0 0 306.42 68.94 Q 309.12 72.12 312.78 73.98 Q 316.44 75.84 320.76 75.84 Q 325.44 75.84 329.16 74.16 Q 332.88 72.48 335.46 69.42 A 20.839 20.839 0 0 0 338.759 63.943 A 24.841 24.841 0 0 0 339.42 62.16 A 27.358 27.358 0 0 0 340.602 56.572 A 34.809 34.809 0 0 0 340.8 52.8 Z M 90.12 48.48 L 124.32 48.48 A 29.226 29.226 0 0 0 123.835 42.977 Q 122.833 37.755 119.76 34.44 A 14.986 14.986 0 0 0 111.407 29.909 A 22.074 22.074 0 0 0 107.16 29.52 A 17.026 17.026 0 0 0 101.459 30.439 A 14.662 14.662 0 0 0 95.58 34.32 A 17.686 17.686 0 0 0 92.229 39.606 Q 91.239 41.953 90.663 44.833 A 38.744 38.744 0 0 0 90.12 48.48 Z" vector-effect="non-scaling-stroke"/></g></svg>
